<svg xmlns="http://www.w3.org/2000/svg" width="119" height="36" fill="none"><g fill="#040504" clip-path="url(#a)"><path d="M0 11.714V0h1.697v8.2c.936-1.908 2.886-3.028 5.266-3.028 3.482-.1 6.38 2.655 6.48 6.157v.414c0 3.87-2.786 6.672-6.757 6.672-3.87 0-6.68-2.649-6.68-6.695m11.723.07c.112-2.671-1.944-4.929-4.6-5.041a4.782 4.782 0 0 0-.413 0C4.07 6.624 1.82 8.686 1.703 11.352a5.59 5.59 0 0 0 0 .445c-.124 2.66 1.926 4.923 4.577 5.042.147.006.294.006.436 0 2.657.112 4.901-1.961 5.013-4.634a4.804 4.804 0 0 0 0-.408v-.006ZM14.91 11.862c0-3.923 2.787-6.701 6.74-6.701 3.953 0 6.71 2.725 6.71 6.7v6.216h-1.567v-3.11c-.884 2.24-2.964 3.436-5.39 3.436-3.47.113-6.369-2.619-6.487-6.109v-.438m11.747-.077c0-2.785-2.244-5.042-5.013-5.042-2.77 0-5.014 2.257-5.014 5.042-.111 2.672 1.945 4.93 4.601 5.042.136.006.277.006.413 0 2.657.112 4.901-1.955 5.013-4.627a4.863 4.863 0 0 0 0-.415ZM29.927 11.506c0-4.177 2.48-6.34 6.18-6.34 3.7 0 6.18 2.169 6.18 6.34v6.571H40.59v-6.57c0-3.105-1.774-4.764-4.478-4.764-2.704 0-4.477 1.653-4.477 4.763v6.571h-1.708v-6.57ZM42.18 22.154h.2c1.874 0 2.557-.812 2.557-2.957V5.498h1.697V19.12c0 3.004-1.167 4.503-4.1 4.503h-.354v-1.476.007Zm2.327-20.4c0-.717.578-1.298 1.29-1.298.713 0 1.29.58 1.29 1.298 0 .717-.577 1.297-1.29 1.297a1.275 1.275 0 0 1-1.29-1.244v-.053ZM48.778 11.862c0-3.923 2.787-6.701 6.734-6.701s6.71 2.725 6.71 6.7v6.216h-1.567v-3.11c-.884 2.24-2.964 3.436-5.39 3.436-3.465.113-6.369-2.619-6.48-6.109v-.438m11.746-.077c0-2.785-2.245-5.042-5.013-5.042-2.77 0-5.014 2.257-5.014 5.042 0 2.784 2.245 5.042 5.014 5.042 2.768 0 5.013-2.258 5.013-5.042ZM76.36 11.79c0-3.815 2.787-6.623 6.734-6.623s6.686 2.796 6.686 6.624v.563H78.11c.159 2.618 2.386 4.615 4.99 4.485 1.973 0 3.493-.812 4.306-2.27h1.85c-.96 2.317-3.24 3.846-6.15 3.846-3.947 0-6.734-2.803-6.734-6.624m11.647-.966c-.407-2.548-2.38-4.077-4.913-4.077-2.534 0-4.554 1.606-4.937 4.077h9.85ZM91.247 11.737c-.124-3.495 2.592-6.44 6.068-6.565h.412c2.38 0 4.33 1.12 5.267 3.028V0h1.697v11.714c0 4.046-2.81 6.7-6.68 6.7-3.977 0-6.758-2.802-6.758-6.677m11.747.048c0-2.785-2.245-5.042-5.013-5.042-2.77 0-5.014 2.257-5.014 5.042 0 2.784 2.245 5.042 5.014 5.042 2.768 0 5.013-2.258 5.013-5.042ZM74.045 18.172c-.212 0-.424.03-.624.089l-2.87-5.576 4.908-.954-4.925-.953 1.785-3.354a2.565 2.565 0 0 0 3.128-1.866 2.582 2.582 0 0 0-1.856-3.146 2.565 2.565 0 0 0-3.128 1.866 2.605 2.605 0 0 0 .878 2.654l-1.891 3.62-3.004-5.836a2.57 2.57 0 0 0 .347-3.608 2.536 2.536 0 0 0-3.588-.35 2.57 2.57 0 0 0-.347 3.609 2.548 2.548 0 0 0 1.98.936c.211 0 .424-.03.624-.089l2.869 5.575-4.908.954 4.896.954-1.756 3.36a2.565 2.565 0 0 0-3.128 1.866 2.582 2.582 0 0 0 1.856 3.146 2.565 2.565 0 0 0 3.128-1.866 2.605 2.605 0 0 0-.878-2.654l1.886-3.638 3.01 5.848a2.57 2.57 0 0 0-.348 3.608 2.536 2.536 0 0 0 3.588.35 2.57 2.57 0 0 0 .347-3.609 2.548 2.548 0 0 0-1.979-.936ZM65.774 31.023c-.03-.397-.377-.693-1.125-.693-.69 0-1.055.272-1.055.67 0 .48.53.627 1.232.805.895.231 2.168.587 2.168 1.95 0 1.54-1.15 2.245-2.817 2.245-1.667 0-2.886-.776-2.886-2.169h1.626c0 .45.46.765 1.325.765.76 0 1.126-.26 1.126-.652 0-.515-.596-.652-1.22-.818-.99-.26-2.18-.574-2.18-1.907 0-1.54 1.126-2.3 2.71-2.3 1.585 0 2.71.789 2.71 2.11h-1.614v-.006ZM71.942 28.914c1.867 0 3.358 1.214 3.358 3.217a3.863 3.863 0 0 1-3.865 3.87h-.076c-1.885 0-3.376-1.216-3.376-3.2.006-2.151 1.744-3.887 3.882-3.881h.071m1.69 3.324a1.689 1.689 0 0 0-1.554-1.813c-.077 0-.16-.006-.236 0a2.191 2.191 0 0 0-2.21 2.174v.089a1.678 1.678 0 0 0 1.562 1.795h.23a2.178 2.178 0 0 0 2.209-2.15v-.101M77.757 26.147h1.614l-1.868 9.675H75.89l1.868-9.675ZM81.344 32.457a2.966 2.966 0 0 0-.053.557 1.36 1.36 0 0 0 1.502 1.475c.937 0 1.597-.515 1.827-1.7l.718-3.692h1.626l-.742 3.846c-.395 2.032-1.708 3.063-3.511 3.063-1.803 0-3.075-.966-3.075-2.79 0-.309.035-.611.094-.913l.624-3.2h1.638l-.648 3.366v-.012ZM89.12 33.132a1.894 1.894 0 0 0-.04.368.93.93 0 0 0 .86.99c.058 0 .123 0 .182-.007.624 0 1.054-.314 1.22-1.131l.052-.303h1.62l-.082.462c-.336 1.7-1.396 2.477-2.898 2.477-1.503 0-2.587-.788-2.587-2.275 0-.249.024-.492.071-.735l1.22-6.28h1.625l-.46 2.387h3.441l-.282 1.47h-3.44l-.502 2.571v.006ZM95.03 29.092h1.613l-1.302 6.73h-1.614l1.302-6.73Zm.093-1.855c0-.652.519-1.179 1.161-1.185h.018a.95.95 0 0 1 1.001.895v.089c0 .651-.518 1.179-1.16 1.185h-.018a.94.94 0 0 1-1.002-.877v-.107ZM101.179 28.914c1.868 0 3.358 1.214 3.358 3.217a3.862 3.862 0 0 1-3.864 3.87h-.077c-1.885 0-3.375-1.216-3.375-3.2.005-2.151 1.743-3.887 3.882-3.881h.071m1.69 3.324a1.688 1.688 0 0 0-1.555-1.813c-.077 0-.159-.006-.236 0a2.19 2.19 0 0 0-2.209 2.168v.089a1.678 1.678 0 0 0 1.561 1.795h.23a2.178 2.178 0 0 0 2.209-2.15v-.101M110.517 32.457a3 3 0 0 0 .053-.557 1.366 1.366 0 0 0-1.243-1.475c-.089-.006-.183 0-.271 0-.907 0-1.585.515-1.815 1.706l-.718 3.691h-1.626l.742-3.845c.395-2.032 1.708-3.063 3.511-3.063 1.803 0 3.075.966 3.075 2.79 0 .309-.035.61-.094.913l-.624 3.2h-1.638l.648-3.366v.006ZM117.386 31.023c-.03-.397-.383-.693-1.125-.693-.69 0-1.055.272-1.055.67 0 .48.53.627 1.231.805.896.231 2.168.587 2.168 1.95 0 1.54-1.148 2.245-2.816 2.245-1.667 0-2.886-.776-2.886-2.169h1.626c0 .45.459.765 1.325.765.76 0 1.125-.26 1.125-.652 0-.515-.595-.652-1.219-.818-.99-.26-2.18-.574-2.18-1.907 0-1.54 1.125-2.3 2.71-2.3s2.71.789 2.71 2.11h-1.614v-.006Z"/></g><defs><clipPath id="a"><path fill="#fff" d="M0 0h119v36H0z"/></clipPath></defs></svg>