<svg xmlns="http://www.w3.org/2000/svg" width="24" height="24" fill="none"><path fill="#595A7E" fill-rule="evenodd" d="M10.943 9.575h2.971v1.48c.428-.851 1.526-1.616 3.175-1.616 3.16 0 3.911 1.695 3.911 4.803V20h-3.2v-5.05c0-1.77-.428-2.768-1.518-2.768-1.51 0-2.139 1.076-2.139 2.768V20h-3.2V9.575ZM5.456 19.864h3.2V9.439h-3.2v10.425ZM9.114 6.04a2.024 2.024 0 0 1-.602 1.442 2.072 2.072 0 0 1-2.91 0A2.039 2.039 0 0 1 5 6.04c0-.542.216-1.06.602-1.442a2.066 2.066 0 0 1 2.91 0c.386.382.602.9.602 1.442Z" clip-rule="evenodd"/></svg>