<svg xmlns="http://www.w3.org/2000/svg" width="52" height="45" fill="none"><g clip-path="url(#a)" filter="url(#b)"><path fill="#FF1600" d="M47.083 11.93A5.107 5.107 0 0 0 45.68 9.6a5.591 5.591 0 0 0-2.453-1.36c-3.443-.908-17.237-.908-17.237-.908-5.75-.065-11.5.223-17.215.862a5.793 5.793 0 0 0-2.453 1.393 5.31 5.31 0 0 0-1.426 2.34A53.334 53.334 0 0 0 4 22a53.236 53.236 0 0 0 .895 10.072c.25.878.74 1.68 1.42 2.327a5.675 5.675 0 0 0 2.459 1.362c3.489.906 17.215.906 17.215.906 5.758.065 11.514-.223 17.237-.862a5.592 5.592 0 0 0 2.453-1.36 5.096 5.096 0 0 0 1.402-2.329c.633-3.32.94-6.694.919-10.074a48.722 48.722 0 0 0-.917-10.114v.002Zm-25.48 16.347V15.724l11.477 6.278-11.476 6.275Z"/></g><defs><clipPath id="a"><path fill="#fff" d="M4 0h44v44H4z"/></clipPath><filter id="b" width="52" height="52" x="0" y="0" color-interpolation-filters="sRGB" filterUnits="userSpaceOnUse"><feFlood flood-opacity="0" result="BackgroundImageFix"/><feColorMatrix in="SourceAlpha" result="hardAlpha" values="0 0 0 0 0 0 0 0 0 0 0 0 0 0 0 0 0 0 127 0"/><feOffset dy="4"/><feGaussianBlur stdDeviation="2"/><feComposite in2="hardAlpha" operator="out"/><feColorMatrix values="0 0 0 0 0 0 0 0 0 0 0 0 0 0 0 0 0 0 0.25 0"/><feBlend in2="BackgroundImageFix" result="effect1_dropShadow_686_6025"/><feBlend in="SourceGraphic" in2="effect1_dropShadow_686_6025" result="shape"/></filter></defs></svg>