<svg xmlns="http://www.w3.org/2000/svg" width="24" height="24" fill="none"><path fill="#595A7E" d="M20.623 7.883a2.088 2.088 0 0 0-.574-.952 2.288 2.288 0 0 0-1.004-.556c-1.408-.371-7.05-.371-7.05-.371a57.488 57.488 0 0 0-7.042.352 2.37 2.37 0 0 0-1.003.57 2.17 2.17 0 0 0-.584.956A21.795 21.795 0 0 0 3 12c-.009 1.38.114 2.758.366 4.118.103.359.303.687.582.951.278.265.624.456 1.005.557 1.427.37 7.042.37 7.042.37 2.355.027 4.71-.09 7.05-.352a2.288 2.288 0 0 0 1.004-.556c.274-.26.472-.589.573-.952.26-1.357.385-2.737.376-4.119a19.913 19.913 0 0 0-.375-4.135Zm-10.422 6.683V9.434l4.694 2.567-4.694 2.565Z"/></svg>